<?xml version="1.0" encoding="utf-8"?>
<!-- Generator: Adobe Illustrator 16.0.0, SVG Export Plug-In . SVG Version: 6.00 Build 0)  -->
<!DOCTYPE svg PUBLIC "-//W3C//DTD SVG 1.1//EN" "http://www.w3.org/Graphics/SVG/1.1/DTD/svg11.dtd">
<svg version="1.1" id="Layer_1" xmlns="http://www.w3.org/2000/svg" xmlns:xlink="http://www.w3.org/1999/xlink" x="0px" y="0px"
	 width="1102px" height="317px" viewBox="0 0 1102 317" enable-background="new 0 0 1102 317" xml:space="preserve">
<g>
	<path fill="#F58220" d="M74.627,256.489c-2.641,0-4.784-2.146-4.784-4.785v-98.736c0-6.591-5.335-11.947-11.893-11.947H25.383
		c-6.253,0-11.332-5.203-11.332-11.603c0-6.392,5.079-11.594,11.332-11.594H136.64c2.642,0,4.787,2.144,4.787,4.783
		c0,2.646-2.145,4.786-4.787,4.786H25.383c-0.956,0-1.764,0.927-1.764,2.026c0,1.105,0.808,2.037,1.764,2.037h32.567
		c11.835,0,21.459,9.654,21.459,21.513v98.736C79.41,254.343,77.271,256.489,74.627,256.489z M163.222,211.957v-1.194
		c0-1.101,0.587-2.071,1.47-2.49c0.136-0.037,0.273-0.079,0.414-0.127l0.839-0.308c2.486-0.898,3.775-3.636,2.879-6.122
		c-0.9-2.486-3.643-3.774-6.128-2.876c-0.097,0.033-0.181,0.063-0.258,0.094l-0.013,0.004c-5.162,1.464-8.768,6.328-8.768,11.825
		v1.194c0,2.647,2.143,4.786,4.785,4.786C161.08,216.743,163.222,214.605,163.222,211.957z M51.462,251.703v-52.23
		c0-2.64-2.142-4.782-4.784-4.782c-2.643,0-4.784,2.143-4.784,4.782v52.23c0,2.64,2.141,4.785,4.784,4.785
		C49.32,256.489,51.462,254.343,51.462,251.703z M51.462,187.164V170.74c0-5.711-4.552-10.354-10.155-10.354H25.383
		c-6.379,0-12.46-2.088-17.597-6.032c-2.089-1.616-5.095-1.222-6.707,0.878c-1.612,2.091-1.219,5.098,0.875,6.704
		c6.822,5.25,14.922,8.017,23.429,8.017h15.924c0.284,0,0.587,0.318,0.587,0.787v16.424c0,2.64,2.141,4.781,4.784,4.781
		C49.32,191.946,51.462,189.804,51.462,187.164z M7.582,104.286c0.289-0.2,0.586-0.389,0.883-0.576
		c4.724-2.895,10.572-4.425,16.918-4.425h16.289c2.64,0,4.782-2.146,4.782-4.786c0-2.64-2.142-4.786-4.782-4.786H25.383
		c-8.133,0-15.729,2.028-21.972,5.867c-0.026,0.017-0.052,0.034-0.08,0.048c-0.37,0.24-0.753,0.481-1.119,0.733
		c-2.188,1.484-2.759,4.46-1.274,6.644c0.924,1.367,2.431,2.103,3.96,2.103C5.826,105.109,6.758,104.844,7.582,104.286z
		 M157.832,104.286c1.745-1.987,1.541-5.009-0.442-6.754c-5.756-5.039-13.059-7.818-20.559-7.818H54.388
		c-2.642,0-4.785,2.146-4.785,4.786c0,2.639,2.143,4.786,4.785,4.786h82.442c5.183,0,10.243,1.934,14.249,5.445
		c0.907,0.798,2.032,1.188,3.149,1.188C155.562,105.918,156.885,105.368,157.832,104.286z M107.339,177.645v-17.281
		c0-4.792,3.906-5.313,5.582-5.313h23.91c17.475,0,31.688-14.64,31.688-32.642c0-4.25-0.784-8.391-2.332-12.301
		c-0.966-2.458-3.749-3.662-6.206-2.696c-2.457,0.975-3.661,3.752-2.692,6.21c1.102,2.786,1.656,5.742,1.656,8.787
		c0,12.726-9.918,23.076-22.114,23.076h-23.91c-8.777,0-15.145,6.255-15.145,14.878v17.281c0,2.645,2.139,4.786,4.782,4.786
		C105.202,182.431,107.339,180.289,107.339,177.645z M107.339,249.119v-58.738c0-2.641-2.137-4.786-4.781-4.786
		c-2.643,0-4.782,2.146-4.782,4.786v58.738c0,2.644,2.139,4.786,4.782,4.786C105.202,253.906,107.339,251.763,107.339,249.119z
		 M65.439,208.16v-47.456c0-9.258-5.317-14.789-14.221-14.789H25.383c-7.604,0-14.111-5.694-15.475-13.535
		c-0.451-2.604-2.933-4.351-5.532-3.893c-2.606,0.452-4.345,2.928-3.899,5.529c2.165,12.438,12.639,21.468,24.906,21.468h25.834
		c3.086,0,4.653,0.809,4.653,5.219v47.456c0,2.644,2.14,4.789,4.781,4.789C63.302,212.949,65.439,210.804,65.439,208.16z
		 M93.381,251.265v-95.667c0-8.45,7.633-15.001,14.195-15.001h29.254c9.778,0,17.729-8.158,17.729-18.188
		c0-10.037-7.951-18.197-17.729-18.197H25.383c-9.441,0-20.569,5.258-24.138,17.004c-0.769,2.529,0.659,5.201,3.187,5.971
		c2.532,0.77,5.201-0.663,5.969-3.185c2.449-8.069,10.57-10.222,14.982-10.222h111.447c4.501,0,8.162,3.87,8.162,8.629
		c0,4.75-3.661,8.614-8.162,8.614h-29.254c-11.238,0-23.766,10.094-23.766,24.575v95.667c0,2.644,2.142,4.786,4.788,4.786
		C91.238,256.051,93.381,253.908,93.381,251.265z M65.439,251.703v-31.186c0-2.64-2.137-4.786-4.787-4.786
		c-2.641,0-4.781,2.146-4.781,4.786v31.186c0,2.64,2.14,4.785,4.781,4.785C63.302,256.489,65.439,254.343,65.439,251.703z
		 M9.982,251.703v-44.225c0-2.64-2.143-4.785-4.782-4.785c-2.644,0-4.787,2.146-4.787,4.785v44.225c0,2.64,2.143,4.785,4.787,4.785
		C7.839,256.489,9.982,254.343,9.982,251.703z M23.746,251.703v-15.589c0-2.641-2.145-4.782-4.79-4.782
		c-2.638,0-4.779,2.142-4.779,4.782v15.589c0,2.64,2.141,4.785,4.779,4.785C21.601,256.489,23.746,254.343,23.746,251.703z
		 M23.746,222.948v-18.563c0-0.049-0.002-0.102-0.002-0.15l-0.017-0.606c0.012-0.629,0.019-1.723,0.019-2.4
		c0-7.706-5.136-13.031-13.741-14.248c-1.386-0.194-2.753-0.442-4.075-0.741c-2.58-0.585-5.142,1.022-5.725,3.605
		c-0.586,2.577,1.027,5.142,3.607,5.726c1.58,0.363,3.213,0.655,4.857,0.888c5.508,0.779,5.508,3.472,5.508,4.771
		c0,0.382-0.008,1.824-0.017,2.146c-0.01,0.138-0.01,0.27-0.002,0.4l0.019,0.678v18.495c0,2.64,2.141,4.785,4.779,4.785
		C21.601,227.734,23.746,225.588,23.746,222.948z M37.479,251.703v-66.482c0-5.719-4.543-10.369-10.13-10.369
		c-2.644,0-4.781,2.142-4.781,4.785c0,2.645,2.137,4.786,4.781,4.786c0.261,0,0.559,0.326,0.559,0.798v66.482
		c0,2.64,2.146,4.785,4.786,4.785C35.336,256.489,37.479,254.343,37.479,251.703z M20.403,179.626
		c0.548-2.588-1.106-5.127-3.69-5.673c-3.382-0.72-6.675-1.843-9.785-3.355c-2.381-1.146-5.237-0.153-6.391,2.225
		c-1.153,2.377-0.156,5.238,2.22,6.388c3.809,1.847,7.836,3.229,11.973,4.104c0.335,0.071,0.667,0.108,0.999,0.108
		C17.936,183.423,19.923,181.877,20.403,179.626z M6.186,87.573c5.598-1.712,12.777-2.737,19.198-2.737
		c2.637,0,4.779-2.138,4.779-4.785c0-2.643-2.142-4.781-4.779-4.781c-7.426,0-15.441,1.148-21.996,3.15
		c-2.53,0.772-3.947,3.449-3.178,5.977c0.634,2.06,2.525,3.386,4.576,3.386C5.249,87.783,5.721,87.712,6.186,87.573z
		 M100.025,80.051c0-2.643-2.14-4.781-4.784-4.781H37.213c-2.644,0-4.781,2.138-4.781,4.781c0,2.646,2.137,4.785,4.781,4.785h58.028
		C97.885,84.836,100.025,82.698,100.025,80.051z M141.615,80.051c0-2.643-2.144-4.781-4.785-4.781h-30.179
		c-2.644,0-4.786,2.138-4.786,4.781c0,2.646,2.142,4.785,4.786,4.785h30.179C139.472,84.836,141.615,82.698,141.615,80.051z
		 M147.422,168.254c11.444-2.809,21.287-10.007,27.713-20.243c1.408-2.232,0.734-5.19-1.502-6.594
		c-2.24-1.404-5.194-0.73-6.601,1.507c-5.097,8.126-12.877,13.817-21.896,16.04c-2.566,0.628-4.133,3.224-3.506,5.784
		c0.541,2.188,2.493,3.644,4.645,3.644C146.653,168.392,147.037,168.351,147.422,168.254z M121.3,245.172v-33.215
		c0-2.644-2.145-4.781-4.787-4.781c-2.642,0-4.785,2.138-4.785,4.781v33.215c0,2.648,2.143,4.786,4.785,4.786
		C119.155,249.958,121.3,247.821,121.3,245.172z M121.3,199.473v-27.22c0-1.498,1.098-2.715,2.455-2.715h10.563
		c2.64,0,4.786-2.139,4.786-4.782s-2.146-4.785-4.786-4.785h-10.563c-6.632,0-12.026,5.516-12.026,12.282v27.22
		c0,2.644,2.143,4.782,4.785,4.782C119.155,204.255,121.3,202.116,121.3,199.473z M135.257,238.656v-51.923
		c0-0.026,0.094-2.737,1.574-2.737c14.183,0,27.94-5.25,38.74-14.784c1.976-1.749,2.167-4.774,0.42-6.755
		c-1.752-1.985-4.78-2.169-6.756-0.42c-9.046,7.995-20.552,12.392-32.403,12.392c-7.237,0-11.142,6.339-11.142,12.305v51.923
		c0,2.641,2.143,4.782,4.784,4.782C133.114,243.439,135.257,241.297,135.257,238.656z M108.831,65.58
		c0-2.648-2.141-4.788-4.784-4.788H4.789C2.146,60.792,0,62.931,0,65.58c0,2.64,2.146,4.781,4.789,4.781h99.259
		C106.69,70.361,108.831,68.22,108.831,65.58z M149.232,228.697v-28.991c0-1.311,1.062-2.296,3.165-2.929
		c7.019-1.576,13.769-4.205,20.067-7.818c2.291-1.318,3.08-4.243,1.766-6.535c-1.317-2.288-4.239-3.081-6.532-1.768
		c-5.505,3.165-11.405,5.456-17.531,6.812c-0.099,0.022-0.195,0.049-0.289,0.075c-6.397,1.839-10.214,6.385-10.214,12.163v28.991
		c0,2.64,2.143,4.781,4.782,4.781C147.088,233.478,149.232,231.336,149.232,228.697z M82.271,130.814c-2.66,0-4.81,2.166-4.81,4.84
		c0,2.679,2.15,4.84,4.81,4.84c2.654,0,4.812-2.161,4.812-4.84C87.083,132.98,84.925,130.814,82.271,130.814z"/>
	<g>
		<path fill="#00386C" d="M225.982,195.221h4.934v43.719h-4.934V195.221z"/>
		<path fill="#00386C" d="M238.065,206.65h4.808v5.624c2.124-3.497,5.497-6.308,11.054-6.308c7.808,0,12.367,5.242,12.367,12.925
			v20.049h-4.81v-18.862c0-5.993-3.247-9.741-8.93-9.741c-5.559,0-9.681,4.061-9.681,10.118v18.485h-4.808V206.65z"/>
		<path fill="#00386C" d="M272.694,230.383v-19.487h-4.497v-4.246h4.497v-9.74h4.809v9.74h10.243v4.246h-10.243v18.864
			c0,3.934,2.185,5.371,5.434,5.371c1.623,0,2.997-0.313,4.684-1.125v4.121c-1.687,0.878-3.498,1.376-5.808,1.376
			C276.63,239.503,272.694,236.942,272.694,230.383z"/>
		<path fill="#00386C" d="M303.963,235.504c4.434,0,7.557-1.811,10.179-4.558l2.999,2.684c-3.248,3.624-7.182,6.061-13.302,6.061
			c-8.87,0-16.113-6.808-16.113-16.862c0-9.367,6.558-16.862,15.488-16.862c9.555,0,15.051,7.62,15.051,17.109
			c0,0.437,0,0.939-0.063,1.688h-25.606C293.282,231.571,298.28,235.504,303.963,235.504z M313.394,220.891
			c-0.563-5.87-3.936-10.865-10.306-10.865c-5.558,0-9.806,4.622-10.492,10.865H313.394z"/>
		<path fill="#00386C" d="M322.365,193.349h4.809v45.591h-4.809V193.349z"/>
		<path fill="#00386C" d="M333.095,194.284h5.495v5.309h-5.495V194.284z M333.405,206.65h4.809v32.29h-4.809V206.65z"/>
		<path fill="#00386C" d="M343.59,244.561l2.188-3.749c3.684,2.69,7.807,4.125,12.427,4.125c7.12,0,11.742-3.934,11.742-11.49
			v-3.813c-2.812,3.747-6.746,6.806-12.679,6.806c-7.745,0-15.176-5.81-15.176-15.111v-0.125c0-9.43,7.495-15.237,15.176-15.237
			c6.057,0,9.993,2.994,12.616,6.493v-5.81h4.809v26.671c0,4.995-1.499,8.804-4.122,11.429c-2.873,2.872-7.183,4.311-12.303,4.311
			C352.896,249.06,347.901,247.558,343.59,244.561z M370.071,221.263v-0.122c0-6.622-5.746-10.931-11.867-10.931
			c-6.12,0-11.179,4.247-11.179,10.871v0.122c0,6.495,5.183,10.99,11.179,10.99C364.325,232.194,370.071,227.762,370.071,221.263z"
			/>
		<path fill="#00386C" d="M394.93,235.504c4.435,0,7.559-1.811,10.181-4.558l2.998,2.684c-3.248,3.624-7.181,6.061-13.302,6.061
			c-8.869,0-16.113-6.808-16.113-16.862c0-9.367,6.557-16.862,15.488-16.862c9.555,0,15.052,7.62,15.052,17.109
			c0,0.437,0,0.939-0.062,1.688h-25.607C384.251,231.571,389.249,235.504,394.93,235.504z M404.362,220.891
			c-0.563-5.87-3.935-10.865-10.305-10.865c-5.558,0-9.805,4.622-10.493,10.865H404.362z M391.996,193.599h4.247l6.621,8.181h-4.121
			l-4.686-4.185l-4.685,4.185h-3.997L391.996,193.599z"/>
		<path fill="#00386C" d="M413.052,206.65h4.809v5.624c2.124-3.497,5.497-6.308,11.056-6.308c7.806,0,12.366,5.242,12.366,12.925
			v20.049h-4.81v-18.862c0-5.993-3.248-9.741-8.931-9.741c-5.559,0-9.681,4.061-9.681,10.118v18.485h-4.809V206.65z"/>
		<path fill="#00386C" d="M444.773,222.953v-0.125c0-9.12,7.118-16.862,16.547-16.862c6.12,0,9.93,2.56,12.927,5.744l-3.184,3.374
			c-2.559-2.688-5.433-4.874-9.804-4.874c-6.557,0-11.554,5.56-11.554,12.492v0.126c0,6.993,5.12,12.55,11.867,12.55
			c4.121,0,7.306-2.058,9.867-4.808l3.061,2.876c-3.249,3.621-7.12,6.244-13.179,6.244
			C451.891,239.691,444.773,232.008,444.773,222.953z"/>
		<path fill="#00386C" d="M477.201,194.284h5.496v5.309h-5.496V194.284z M477.515,206.65h4.808v32.29h-4.808V206.65z"/>
		<path fill="#00386C" d="M485.786,229.573v-0.126c0-6.931,5.623-10.556,13.802-10.556c4.123,0,6.996,0.562,9.869,1.376v-1
			c0-5.746-3.496-8.743-9.554-8.743c-3.81,0-6.808,0.936-9.808,2.311l-1.435-3.937c3.56-1.621,6.995-2.746,11.743-2.746
			c4.557,0,8.117,1.249,10.43,3.561c2.247,2.245,3.372,5.372,3.372,9.493v19.734h-4.748v-4.809
			c-2.247,2.872-5.934,5.494-11.616,5.494C491.782,239.625,485.786,236.189,485.786,229.573z M509.519,227.073v-2.997
			c-2.373-0.686-5.494-1.373-9.429-1.373c-5.995,0-9.43,2.624-9.43,6.497v0.122c0,4.06,3.748,6.434,8.118,6.434
			C504.71,235.755,509.519,232.194,509.519,227.073z"/>
		<path fill="#00386C" d="M548.862,235.504c4.433,0,7.558-1.811,10.179-4.558l3,2.684c-3.25,3.624-7.185,6.061-13.304,6.061
			c-8.871,0-16.114-6.808-16.114-16.862c0-9.367,6.559-16.862,15.487-16.862c9.557,0,15.054,7.62,15.054,17.109
			c0,0.437,0,0.939-0.063,1.688h-25.606C538.18,231.571,543.178,235.504,548.862,235.504z M558.293,220.891
			c-0.564-5.87-3.937-10.865-10.306-10.865c-5.559,0-9.807,4.622-10.493,10.865H558.293z"/>
		<path fill="#00386C" d="M566.983,206.65h4.809v5.434c2.123-3.186,4.999-6.117,10.429-6.117c5.246,0,8.62,2.811,10.369,6.43
			c2.313-3.558,5.746-6.43,11.365-6.43c7.435,0,11.994,4.995,11.994,12.988v19.985h-4.809v-18.862c0-6.244-3.125-9.741-8.373-9.741
			c-4.87,0-8.931,3.623-8.931,9.992v18.611h-4.743v-18.985c0-6.058-3.185-9.618-8.306-9.618c-5.124,0-8.996,4.246-8.996,10.178
			v18.426h-4.809V206.65z"/>
		<path fill="#00386C" d="M637.427,195.221h18.798c5.373,0,9.68,1.625,12.431,4.372c2.121,2.127,3.374,5.186,3.374,8.618v0.127
			c0,7.244-4.998,11.49-11.867,12.743l13.425,17.858h-6.058l-12.678-16.987H642.36v16.987h-4.934V195.221z M655.788,217.517
			c6.56,0,11.243-3.372,11.243-8.991V208.4c0-5.371-4.124-8.618-11.18-8.618H642.36v17.735H655.788z"/>
		<path fill="#00386C" d="M690.548,235.504c4.433,0,7.556-1.811,10.179-4.558l2.997,2.684c-3.247,3.624-7.183,6.061-13.303,6.061
			c-8.867,0-16.111-6.808-16.111-16.862c0-9.367,6.559-16.862,15.489-16.862c9.553,0,15.05,7.62,15.05,17.109
			c0,0.437,0,0.939-0.063,1.688h-25.604C679.868,231.571,684.861,235.504,690.548,235.504z M699.979,220.891
			c-0.566-5.87-3.939-10.865-10.309-10.865c-5.557,0-9.802,4.622-10.488,10.865H699.979z"/>
		<path fill="#00386C" d="M708.951,193.349h4.809v45.591h-4.809V193.349z"/>
		<path fill="#00386C" d="M717.394,229.573v-0.126c0-6.931,5.62-10.556,13.801-10.556c4.123,0,6.995,0.562,9.869,1.376v-1
			c0-5.746-3.499-8.743-9.559-8.743c-3.81,0-6.806,0.936-9.802,2.311l-1.439-3.937c3.562-1.621,6.997-2.746,11.741-2.746
			c4.562,0,8.12,1.249,10.431,3.561c2.251,2.245,3.374,5.372,3.374,9.493v19.734h-4.746v-4.809
			c-2.251,2.872-5.936,5.494-11.616,5.494C723.391,239.625,717.394,236.189,717.394,229.573z M741.125,227.073v-2.997
			c-2.374-0.686-5.497-1.373-9.431-1.373c-5.997,0-9.431,2.624-9.431,6.497v0.122c0,4.06,3.746,6.434,8.116,6.434
			C736.315,235.755,741.125,232.194,741.125,227.073z"/>
		<path fill="#00386C" d="M757.953,246.496l4.872-7.118c-7.933-1.375-13.552-8.37-13.552-16.425v-0.125
			c0-9.12,7.119-16.862,16.548-16.862c6.12,0,9.931,2.56,12.927,5.744l-3.184,3.374c-2.558-2.688-5.432-4.874-9.803-4.874
			c-6.558,0-11.557,5.56-11.557,12.492v0.126c0,6.993,5.123,12.55,11.867,12.55c4.121,0,7.308-2.058,9.869-4.808l3.057,2.876
			c-3.057,3.432-6.742,5.932-12.238,6.179l-4.121,8.998L757.953,246.496z"/>
		<path fill="#00386C" d="M779.23,222.953v-0.125c0-9.12,7.119-16.862,16.86-16.862c9.681,0,16.803,7.62,16.803,16.736v0.126
			c0,9.114-7.183,16.862-16.924,16.862C786.287,239.691,779.23,232.069,779.23,222.953z M807.958,222.953v-0.125
			c0-6.934-5.183-12.618-11.988-12.618c-6.997,0-11.806,5.685-11.806,12.492v0.126c0,6.932,5.119,12.55,11.927,12.55
			C803.088,235.378,807.958,229.76,807.958,222.953z M785.975,201.529c1.251-4.683,2.936-6.555,5.932-6.555
			c2.814,0,6.248,2.495,8.373,2.495c1.621,0,2.309-0.811,3.245-3.059l2.936,0.811c-1.249,4.687-2.936,6.559-5.932,6.559
			c-2.812,0-6.246-2.5-8.371-2.5c-1.623,0-2.307,0.814-3.247,3.063L785.975,201.529z"/>
		<path fill="#00386C" d="M831.209,235.504c4.436,0,7.557-1.811,10.18-4.558l2.995,2.684c-3.246,3.624-7.182,6.061-13.303,6.061
			c-8.865,0-16.111-6.808-16.111-16.862c0-9.367,6.559-16.862,15.489-16.862c9.555,0,15.053,7.62,15.053,17.109
			c0,0.437,0,0.939-0.066,1.688h-25.604C820.529,231.571,825.522,235.504,831.209,235.504z M840.64,220.891
			c-0.565-5.87-3.938-10.865-10.308-10.865c-5.559,0-9.803,4.622-10.49,10.865H840.64z"/>
		<path fill="#00386C" d="M846.294,234.819l2.436-3.434c3.499,2.621,7.372,4.119,11.184,4.119c3.87,0,6.677-1.996,6.677-5.121
			v-0.125c0-3.245-3.809-4.498-8.053-5.685c-5.059-1.435-10.682-3.184-10.682-9.116v-0.126c0-5.557,4.623-9.24,10.992-9.24
			c3.934,0,8.306,1.373,11.618,3.558l-2.188,3.621c-2.996-1.932-6.43-3.123-9.553-3.123c-3.811,0-6.246,2.002-6.246,4.687v0.122
			c0,3.063,3.995,4.25,8.305,5.559c4.998,1.5,10.367,3.436,10.367,9.246v0.121c0,6.125-5.059,9.684-11.488,9.684
			C855.035,239.565,849.917,237.752,846.294,234.819z"/>
		<path fill="#00386C" d="M891.131,195.221h16.365c9.869,0,16.362,5.246,16.362,13.868v0.125c0,9.428-7.869,14.298-17.177,14.298
			h-10.613v15.428h-4.938V195.221z M906.871,219.018c7.246,0,11.992-3.872,11.992-9.62v-0.123c0-6.246-4.687-9.493-11.743-9.493
			h-11.052v19.236H906.871z"/>
		<path fill="#00386C" d="M926.673,226.7V206.65h4.81v18.863c0,5.997,3.245,9.744,8.932,9.744c5.493,0,9.678-4.06,9.678-10.12
			V206.65h4.746v32.29h-4.746v-5.619c-2.185,3.496-5.495,6.305-11.055,6.305C931.232,239.625,926.673,234.378,926.673,226.7z
			 M944.66,192.725l4.996,2.311l-7.121,6.744h-3.746L944.66,192.725z"/>
		<path fill="#00386C" d="M965.542,232.757v6.183h-4.81v-45.591h4.81v19.796c2.624-3.87,6.43-7.179,12.365-7.179
			c7.744,0,15.426,6.117,15.426,16.736v0.126c0,10.553-7.62,16.797-15.426,16.797C971.912,239.625,968.038,236.38,965.542,232.757z
			 M988.399,222.888v-0.125c0-7.617-5.25-12.49-11.366-12.49c-5.999,0-11.682,5.059-11.682,12.43v0.126
			c0,7.495,5.683,12.49,11.682,12.49C983.277,235.319,988.399,230.696,988.399,222.888z"/>
		<path fill="#00386C" d="M997.679,193.349h4.811v45.591h-4.811V193.349z"/>
		<path fill="#00386C" d="M1008.407,194.284h5.495v5.309h-5.495V194.284z M1008.717,206.65h4.81v32.29h-4.81V206.65z"/>
		<path fill="#00386C" d="M1017.47,222.953v-0.125c0-9.12,7.122-16.862,16.55-16.862c6.124,0,9.932,2.56,12.932,5.744l-3.187,3.374
			c-2.563-2.688-5.434-4.874-9.808-4.874c-6.555,0-11.551,5.56-11.551,12.492v0.126c0,6.993,5.121,12.55,11.867,12.55
			c4.121,0,7.305-2.058,9.863-4.808l3.063,2.876c-3.249,3.621-7.116,6.244-13.181,6.244
			C1024.592,239.691,1017.47,232.008,1017.47,222.953z"/>
		<path fill="#00386C" d="M1048.322,229.573v-0.126c0-6.931,5.62-10.556,13.803-10.556c4.12,0,6.994,0.562,9.868,1.376v-1
			c0-5.746-3.499-8.743-9.56-8.743c-3.811,0-6.807,0.936-9.802,2.311l-1.438-3.937c3.56-1.621,6.996-2.746,11.742-2.746
			c4.559,0,8.122,1.249,10.429,3.561c2.25,2.245,3.374,5.372,3.374,9.493v19.734h-4.745v-4.809
			c-2.25,2.872-5.935,5.494-11.617,5.494C1054.318,239.625,1048.322,236.189,1048.322,229.573z M1072.054,227.073v-2.997
			c-2.374-0.686-5.497-1.373-9.43-1.373c-5.997,0-9.433,2.624-9.433,6.497v0.122c0,4.06,3.747,6.434,8.119,6.434
			C1067.245,235.755,1072.054,232.194,1072.054,227.073z"/>
		<path fill="#00386C" d="M1079.327,234.819l2.435-3.434c3.501,2.621,7.371,4.119,11.182,4.119c3.873,0,6.682-1.996,6.682-5.121
			v-0.125c0-3.245-3.81-4.498-8.057-5.685c-5.059-1.435-10.678-3.184-10.678-9.116v-0.126c0-5.557,4.621-9.24,10.988-9.24
			c3.937,0,8.307,1.373,11.616,3.558l-2.183,3.621c-2.998-1.932-6.434-3.123-9.555-3.123c-3.813,0-6.246,2.002-6.246,4.687v0.122
			c0,3.063,3.994,4.25,8.306,5.559c4.997,1.5,10.367,3.436,10.367,9.246v0.121c0,6.125-5.06,9.684-11.491,9.684
			C1088.069,239.565,1082.948,237.752,1079.327,234.819z"/>
	</g>
	<g>
		<g>
			<g>
				<path fill="#00386C" d="M225.982,73.144h36.377c30.655,0,51.838,21.04,51.838,48.499v0.277
					c0,27.452-21.184,48.771-51.838,48.771h-36.377V73.144z M262.36,155.085c20.481,0,33.86-13.795,33.86-32.888v-0.277
					c0-19.089-13.379-33.169-33.86-33.169h-19.238v66.334H262.36z"/>
				<path fill="#00386C" d="M327.995,73.144h17.139v97.548h-17.139V73.144z"/>
				<path fill="#00386C" d="M358.738,122.197v-0.277c0-27.311,20.904-50.45,50.305-50.45c17.005,0,27.46,4.745,37.493,13.242
					l-10.871,12.961c-7.524-6.414-14.913-10.452-27.319-10.452c-17.973,0-31.628,15.747-31.628,34.421v0.277
					c0,20.071,13.237,34.833,33.163,34.833c9.199,0,17.559-2.919,23.56-7.38v-18.259h-24.946v-14.905h41.524v40.972
					c-9.614,8.217-23.409,15.182-40.697,15.182C378.809,172.362,358.738,150.627,358.738,122.197z"/>
				<path fill="#00386C" d="M464.64,73.144h17.143v97.548H464.64V73.144z"/>
				<path fill="#00386C" d="M527.224,89.03h-30.938V73.144h79.157V89.03h-30.939v81.662h-17.28V89.03z"/>
				<path fill="#00386C" d="M674.105,73.144h17.141v81.941h51.287v15.607h-68.428V73.144z"/>
				<path fill="#00386C" d="M822.665,89.03H791.73V73.144h79.152V89.03h-30.943v81.662h-17.274V89.03z"/>
				<path fill="#00386C" d="M885.334,73.144h43.48c12.262,0,21.877,3.621,28.15,9.751c5.156,5.304,8.076,12.547,8.076,21.046v0.281
					c0,16.028-9.611,25.635-23.266,29.542l26.338,36.927h-20.208l-23.97-33.997h-21.459v33.997h-17.143V73.144z M927.551,121.503
					c12.266,0,20.081-6.415,20.081-16.308v-0.278c0-10.455-7.53-16.166-20.218-16.166h-24.938v32.752H927.551z"/>
				<path fill="#00386C" d="M982.519,73.144h17.142v97.548h-17.142V73.144z"/>
				<path fill="#00386C" d="M1048.266,121.083l-34.143-47.939h20.213l24.248,34.978l24.389-34.978h19.646l-34.004,47.658
					l35.398,49.89h-20.209l-25.639-36.927l-25.783,36.927h-19.65L1048.266,121.083z"/>
			</g>
		</g>
		<g>
			<path fill="#F58220" d="M609.342,70.694l50.443,100.016H559.431L609.342,70.694z M635.923,157.032l-26.581-53.485l-26.268,53.485
				H635.923z"/>
		</g>
	</g>
</g>
</svg>
