<?xml version="1.0" encoding="utf-8"?>
<!-- Generator: Adobe Illustrator 16.0.0, SVG Export Plug-In . SVG Version: 6.00 Build 0)  -->
<!DOCTYPE svg PUBLIC "-//W3C//DTD SVG 1.1//EN" "http://www.w3.org/Graphics/SVG/1.1/DTD/svg11.dtd">
<svg version="1.1" id="Isolation_Mode" xmlns="http://www.w3.org/2000/svg" xmlns:xlink="http://www.w3.org/1999/xlink" x="0px"
	 y="0px" width="327.823px" height="362.07px" viewBox="0 0 327.823 362.07" enable-background="new 0 0 327.823 362.07"
	 xml:space="preserve">
<path opacity="0.03" fill="#00386C" d="M138.073,362.07c-4.886,0-8.851-3.969-8.851-8.854V170.539
	c0-12.194-9.871-22.104-22.004-22.104H46.963c-11.568,0-20.965-9.627-20.965-21.468c0-11.826,9.396-21.451,20.965-21.451h205.843
	c4.888,0,8.856,3.967,8.856,8.849c0,4.896-3.968,8.854-8.856,8.854H46.963c-1.769,0-3.263,1.715-3.263,3.748
	c0,2.044,1.495,3.77,3.263,3.77h60.255c21.896,0,39.704,17.86,39.704,39.803v182.678C146.922,358.102,142.964,362.07,138.073,362.07
	z M301.988,279.68v-2.21c0-2.037,1.086-3.831,2.719-4.607c0.251-0.069,0.506-0.146,0.766-0.235l1.552-0.568
	c4.599-1.662,6.983-6.728,5.326-11.327c-1.665-4.601-6.739-6.984-11.338-5.321c-0.18,0.063-0.334,0.118-0.478,0.174l-0.024,0.006
	c-9.55,2.709-16.222,11.709-16.222,21.88v2.21c0,4.898,3.964,8.854,8.853,8.854C298.025,288.535,301.988,284.579,301.988,279.68z
	 M95.213,353.217v-96.635c0-4.884-3.963-8.848-8.851-8.848c-4.89,0-8.851,3.964-8.851,8.848v96.635c0,4.885,3.961,8.854,8.851,8.854
	C91.25,362.07,95.213,358.102,95.213,353.217z M95.213,233.809v-30.388c0-10.565-8.421-19.158-18.788-19.158H46.963
	c-11.802,0-23.054-3.862-32.558-11.158c-3.866-2.989-9.426-2.262-12.408,1.625c-2.983,3.869-2.255,9.433,1.619,12.403
	c12.622,9.713,27.607,14.833,43.347,14.833h29.462c0.524,0,1.086,0.589,1.086,1.455v30.388c0,4.884,3.961,8.847,8.851,8.847
	C91.25,242.656,95.213,238.693,95.213,233.809z M14.028,80.471c0.535-0.37,1.084-0.721,1.633-1.065
	c8.74-5.355,19.56-8.188,31.302-8.188h30.138c4.884,0,8.847-3.972,8.847-8.854c0-4.885-3.963-8.854-8.847-8.854H46.963
	c-15.048,0-29.102,3.752-40.651,10.854c-0.048,0.031-0.095,0.063-0.147,0.089c-0.684,0.444-1.393,0.89-2.07,1.355
	c-4.048,2.746-5.104,8.254-2.357,12.293c1.71,2.528,4.499,3.89,7.327,3.89C10.779,81.992,12.504,81.503,14.028,80.471z
	 M292.015,80.471c3.229-3.677,2.851-9.269-0.817-12.497c-10.65-9.321-24.161-14.464-38.038-14.464H100.627
	c-4.888,0-8.853,3.97-8.853,8.854c0,4.882,3.965,8.854,8.853,8.854h152.532c9.589,0,18.951,3.579,26.362,10.074
	c1.678,1.478,3.76,2.198,5.826,2.198C287.814,83.491,290.264,82.472,292.015,80.471z M198.594,216.197v-31.972
	c0-8.868,7.226-9.831,10.329-9.831h44.236c32.331,0,58.628-27.086,58.628-60.394c0-7.863-1.45-15.524-4.314-22.759
	c-1.788-4.549-6.935-6.776-11.482-4.989c-4.545,1.804-6.774,6.942-4.981,11.491c2.039,5.154,3.064,10.622,3.064,16.257
	c0,23.546-18.35,42.695-40.915,42.695h-44.236c-16.24,0-28.021,11.573-28.021,27.529v31.972c0,4.892,3.958,8.854,8.848,8.854
	C194.64,225.051,198.594,221.088,198.594,216.197z M198.594,348.436V239.76c0-4.885-3.954-8.854-8.845-8.854
	c-4.89,0-8.848,3.97-8.848,8.854v108.675c0,4.893,3.958,8.855,8.848,8.855C194.64,357.291,198.594,353.328,198.594,348.436z
	 M121.073,272.655v-87.803c0-17.127-9.838-27.359-26.312-27.359H46.963c-14.068,0-26.107-10.535-28.631-25.042
	c-0.835-4.819-5.427-8.051-10.235-7.202c-4.822,0.835-8.039,5.418-7.214,10.229c4.004,23.012,23.384,39.72,46.08,39.72h47.798
	c5.71,0,8.61,1.496,8.61,9.654v87.803c0,4.892,3.959,8.861,8.846,8.861C117.119,281.516,121.073,277.546,121.073,272.655z
	 M172.771,352.406V175.405c0-15.633,14.122-27.754,26.263-27.754h54.125c18.092,0,32.802-15.093,32.802-33.65
	c0-18.569-14.71-33.668-32.802-33.668H46.963c-17.468,0-38.057,9.729-44.66,31.461c-1.422,4.681,1.22,9.624,5.896,11.048
	c4.684,1.423,9.622-1.227,11.044-5.893c4.531-14.929,19.557-18.913,27.72-18.913h206.196c8.328,0,15.1,7.161,15.1,15.965
	c0,8.788-6.772,15.938-15.1,15.938h-54.125c-20.792,0-43.97,18.675-43.97,45.466v177.001c0,4.891,3.963,8.854,8.857,8.854
	C168.805,361.26,172.771,357.297,172.771,352.406z M121.073,353.217v-57.699c0-4.885-3.954-8.854-8.856-8.854
	c-4.886,0-8.846,3.97-8.846,8.854v57.699c0,4.885,3.959,8.854,8.846,8.854C117.119,362.07,121.073,358.102,121.073,353.217z
	 M18.469,353.217v-81.823c0-4.884-3.965-8.854-8.847-8.854c-4.892,0-8.856,3.971-8.856,8.854v81.823
	c0,4.885,3.965,8.854,8.856,8.854C14.504,362.07,18.469,358.102,18.469,353.217z M43.934,353.217v-28.842
	c0-4.885-3.968-8.848-8.861-8.848c-4.881,0-8.842,3.963-8.842,8.848v28.842c0,4.885,3.961,8.854,8.842,8.854
	C39.966,362.07,43.934,358.102,43.934,353.217z M43.934,300.014v-34.342c0-0.09-0.003-0.187-0.003-0.277l-0.031-1.122
	c0.022-1.164,0.035-3.188,0.035-4.441c0-14.258-9.502-24.109-25.423-26.361c-2.563-0.36-5.094-0.817-7.54-1.372
	c-4.773-1.081-9.514,1.892-10.592,6.672c-1.084,4.767,1.9,9.513,6.674,10.594c2.922,0.672,5.944,1.212,8.986,1.642
	c10.191,1.441,10.191,6.423,10.191,8.826c0,0.707-0.016,3.374-0.031,3.971c-0.017,0.256-0.017,0.498-0.003,0.741l0.035,1.254v34.217
	c0,4.885,3.961,8.855,8.842,8.855C39.966,308.869,43.934,304.898,43.934,300.014z M69.343,353.217V230.212
	c0-10.579-8.406-19.184-18.743-19.184c-4.891,0-8.846,3.963-8.846,8.854c0,4.891,3.955,8.854,8.846,8.854
	c0.483,0,1.034,0.604,1.034,1.476v123.004c0,4.885,3.97,8.854,8.854,8.854C65.378,362.07,69.343,358.102,69.343,353.217z
	 M37.749,219.862c1.014-4.787-2.047-9.484-6.828-10.496c-6.258-1.33-12.35-3.408-18.104-6.208c-4.404-2.12-9.689-0.284-11.825,4.116
	c-2.134,4.398-0.288,9.692,4.108,11.819c7.046,3.415,14.498,5.972,22.151,7.593c0.62,0.132,1.235,0.201,1.848,0.201
	C33.185,226.887,36.862,224.026,37.749,219.862z M11.444,49.549c10.358-3.168,23.641-5.064,35.52-5.064
	c4.879,0,8.842-3.956,8.842-8.853c0-4.89-3.963-8.846-8.842-8.846c-13.739,0-28.569,2.125-40.696,5.829
	c-4.68,1.429-7.303,6.381-5.88,11.057c1.172,3.811,4.673,6.265,8.466,6.265C9.712,49.937,10.585,49.805,11.444,49.549z
	 M185.063,35.632c0-4.89-3.959-8.846-8.851-8.846H68.851c-4.891,0-8.845,3.956-8.845,8.846c0,4.896,3.954,8.853,8.845,8.853h107.362
	C181.104,44.484,185.063,40.528,185.063,35.632z M262.012,35.632c0-4.89-3.966-8.846-8.853-8.846h-55.836
	c-4.892,0-8.854,3.956-8.854,8.846c0,4.896,3.963,8.853,8.854,8.853h55.836C258.045,44.484,262.012,40.528,262.012,35.632z
	 M272.756,198.821c21.173-5.196,39.384-18.514,51.274-37.452c2.604-4.129,1.357-9.603-2.78-12.2
	c-4.145-2.599-9.609-1.352-12.213,2.788c-9.431,15.034-23.824,25.565-40.511,29.677c-4.748,1.164-7.647,5.964-6.487,10.703
	c1.001,4.046,4.613,6.741,8.593,6.741C271.332,199.078,272.042,199.001,272.756,198.821z M224.425,341.133V279.68
	c0-4.892-3.968-8.848-8.856-8.848c-4.888,0-8.853,3.956-8.853,8.848v61.453c0,4.898,3.965,8.855,8.853,8.855
	C220.457,349.988,224.425,346.031,224.425,341.133z M224.425,256.582V206.22c0-2.771,2.031-5.022,4.541-5.022h19.543
	c4.884,0,8.854-3.956,8.854-8.848s-3.97-8.853-8.854-8.853h-19.543c-12.27,0-22.25,10.203-22.25,22.723v50.361
	c0,4.892,3.965,8.848,8.853,8.848C220.457,265.429,224.425,261.473,224.425,256.582z M250.248,329.078v-96.066
	c0-0.049,0.173-5.064,2.911-5.064c26.241,0,51.693-9.714,71.675-27.354c3.656-3.235,4.01-8.833,0.777-12.498
	c-3.242-3.67-8.844-4.01-12.5-0.776c-16.737,14.792-38.026,22.926-59.952,22.926c-13.39,0-20.615,11.729-20.615,22.767v96.066
	c0,4.885,3.965,8.848,8.851,8.848C246.283,337.926,250.248,333.963,250.248,329.078z M201.355,8.858c0-4.9-3.961-8.858-8.851-8.858
	H8.86C3.972,0,0,3.958,0,8.858c0,4.884,3.971,8.845,8.859,8.845h183.645C197.394,17.703,201.355,13.742,201.355,8.858z
	 M276.104,310.65v-53.639c0-2.425,1.964-4.247,5.854-5.418c12.987-2.917,25.475-7.78,37.128-14.466
	c4.238-2.439,5.698-7.85,3.267-12.09c-2.438-4.233-7.843-5.702-12.085-3.271c-10.186,5.854-21.102,10.095-32.436,12.603
	c-0.182,0.042-0.36,0.09-0.534,0.139c-11.835,3.401-18.898,11.813-18.898,22.503v53.639c0,4.883,3.965,8.846,8.848,8.846
	C272.138,319.496,276.104,315.533,276.104,310.65z M152.215,129.551c-4.921,0-8.899,4.008-8.899,8.954
	c0,4.957,3.979,8.955,8.899,8.955c4.91,0,8.903-3.998,8.903-8.955C161.118,133.559,157.125,129.551,152.215,129.551z"/>
</svg>
