<?xml version="1.0" standalone="no"?>
<!DOCTYPE svg PUBLIC "-//W3C//DTD SVG 20010904//EN"
 "http://www.w3.org/TR/2001/REC-SVG-20010904/DTD/svg10.dtd">
<svg version="1.0" xmlns="http://www.w3.org/2000/svg"
 width="512.000000pt" height="512.000000pt" viewBox="0 0 512.000000 512.000000"
 preserveAspectRatio="xMidYMid meet">
<metadata>
Created by potrace 1.11, written by Peter Selinger 2001-2013
</metadata>
<g transform="translate(0.000000,512.000000) scale(0.100000,-0.100000)"
fill="#000000" stroke="none">
<path d="M365 5050 c-37 -15 -67 -57 -72 -102 -6 -55 26 -106 77 -123 26 -8
384 -11 1331 -10 1218 0 1297 1 1322 18 79 52 81 161 3 208 -30 18 -79 19
-1336 18 -718 0 -1314 -4 -1325 -9z"/>
<path d="M777 4684 c-1 -1 -31 -4 -67 -8 -36 -4 -87 -11 -115 -16 -27 -5 -61
-11 -75 -14 -65 -11 -157 -40 -181 -57 -57 -40 -63 -128 -13 -180 38 -39 82
-45 162 -23 37 10 69 19 72 19 23 4 108 19 120 21 24 5 140 15 223 19 49 2 88
10 103 20 74 48 75 160 2 205 -28 18 -47 20 -131 18 -54 -1 -99 -3 -100 -4z"/>
<path d="M1182 4670 c-81 -50 -75 -176 11 -211 25 -11 188 -13 792 -14 418 -1
773 2 788 7 85 22 111 138 47 203 l-30 30 -788 3 c-775 2 -787 2 -820 -18z"/>
<path d="M2964 4670 c-75 -49 -74 -157 2 -207 24 -15 67 -17 438 -18 226 0
423 3 437 8 96 30 113 165 27 217 -32 19 -49 20 -453 20 -404 0 -421 -1 -451
-20z"/>
<path d="M1097 4323 c-1 -1 -67 -3 -147 -4 -79 -1 -165 -6 -190 -11 -25 -5
-58 -11 -75 -14 -95 -17 -283 -99 -343 -149 -63 -53 -63 -137 -1 -190 40 -33
103 -34 150 -2 54 36 150 75 240 99 75 19 115 21 374 23 257 2 294 4 317 19
58 38 76 103 44 164 -27 53 -58 62 -221 65 -81 1 -147 1 -148 0z"/>
<path d="M1720 4322 c-61 -2 -80 -7 -106 -27 -71 -54 -65 -151 12 -202 25 -16
107 -17 1143 -18 876 -1 1127 -4 1166 -15 61 -15 158 -63 205 -100 52 -40 74
-50 119 -50 77 0 132 79 106 154 -17 50 -27 59 -119 120 -118 77 -213 113
-348 131 -45 6 -2039 13 -2178 7z"/>
<path d="M840 3944 c-162 -26 -322 -114 -412 -227 -47 -60 -98 -161 -98 -195
0 -73 66 -129 139 -119 51 6 75 27 107 88 46 92 117 153 222 191 57 21 63 21
1537 23 814 0 1495 -2 1514 -6 52 -11 112 -59 138 -109 43 -83 24 -198 -44
-266 -57 -57 -60 -57 -538 -59 -476 -2 -476 -2 -599 -60 -151 -71 -289 -227
-333 -375 -9 -30 -19 -62 -22 -70 -2 -8 -5 -595 -7 -1304 -3 -1420 -7 -1326
59 -1366 41 -25 83 -25 124 0 67 40 63 -52 63 1337 0 692 3 1271 6 1287 17 97
120 223 221 272 l58 29 460 5 c439 5 463 6 517 27 280 105 391 436 232 693
-38 63 -116 130 -194 168 l-75 37 -1525 1 c-839 1 -1536 0 -1550 -2z"/>
<path d="M4381 3859 c-32 -19 -61 -66 -61 -98 0 -10 9 -48 21 -83 33 -98 35
-270 5 -364 -65 -203 -229 -361 -421 -404 -31 -7 -193 -13 -435 -14 -410 -3
-432 -6 -516 -57 -49 -30 -113 -105 -142 -167 -27 -57 -27 -58 -30 -333 -4
-302 0 -330 53 -365 60 -39 152 -17 177 44 8 18 12 115 13 283 2 230 4 259 21
287 35 60 44 61 445 62 399 1 448 6 585 59 225 87 401 277 479 515 33 102 40
157 38 286 -2 155 -47 313 -99 347 -35 23 -98 24 -133 2z"/>
<path d="M892 3598 c-88 -15 -172 -80 -213 -166 -35 -71 -34 -188 3 -258 15
-28 48 -70 74 -93 80 -70 87 -71 604 -71 502 0 518 -2 599 -60 48 -35 96 -106
113 -165 8 -28 11 -417 12 -1340 1 -1224 2 -1302 19 -1328 43 -65 135 -74 191
-18 l31 31 3 1316 c3 1460 6 1382 -64 1515 -66 124 -179 219 -324 269 -64 23
-74 23 -543 24 -515 2 -496 0 -497 53 0 54 -90 51 1480 51 1448 0 1450 0 1483
21 78 48 75 165 -6 207 -29 16 -146 17 -1479 18 -795 1 -1464 -2 -1486 -6z"/>
<path d="M364 3292 c-36 -23 -64 -75 -58 -111 11 -65 18 -90 44 -148 77 -169
213 -294 390 -357 l85 -31 410 -3 c456 -4 467 -5 481 -65 4 -18 8 -322 9 -677
1 -721 -3 -680 72 -715 45 -22 94 -13 136 25 l32 28 0 694 0 693 -31 65 c-49
102 -126 165 -229 185 -22 5 -218 9 -435 11 -344 1 -401 4 -445 19 -133 46
-230 148 -269 286 -21 72 -59 110 -118 116 -31 3 -52 -1 -74 -15z"/>
<path d="M2339 3253 c-111 -68 -50 -243 79 -227 112 14 146 165 50 224 -40 24
-93 25 -129 3z"/>
<path d="M4623 3000 c-18 -10 -40 -32 -50 -47 -108 -173 -302 -322 -496 -382
-121 -37 -153 -67 -151 -143 2 -52 30 -89 82 -108 38 -13 47 -12 119 8 103 30
261 108 348 171 95 70 201 176 271 273 49 68 57 86 57 123 0 54 -24 92 -68
111 -46 19 -74 18 -112 -6z"/>
<path d="M375 2685 c-69 -25 -100 -91 -72 -158 36 -85 264 -202 469 -241 48
-9 160 -14 327 -15 141 -1 258 -4 261 -7 3 -3 5 -108 6 -232 1 -141 5 -237 12
-254 34 -84 168 -89 216 -8 23 40 24 503 1 571 -22 64 -67 113 -132 145 l-56
28 -261 1 c-144 1 -285 5 -314 9 -102 14 -200 55 -347 145 -45 28 -66 31 -110
16z"/>
<path d="M3380 2511 c-72 -26 -106 -48 -145 -95 -74 -91 -75 -97 -75 -543 l0
-396 25 -32 c52 -69 157 -64 200 8 18 30 19 57 20 409 1 354 2 378 19 397 18
20 30 21 179 21 144 0 163 2 197 21 44 25 60 54 60 108 0 41 -25 82 -63 103
-36 20 -361 19 -417 -1z"/>
<path d="M4674 2495 c-16 -7 -42 -25 -59 -39 -47 -42 -183 -130 -260 -169 -84
-41 -233 -93 -295 -102 -24 -4 -47 -8 -50 -10 -6 -4 -48 -8 -213 -20 -37 -2
-82 -11 -101 -19 -46 -19 -113 -82 -136 -125 -42 -83 -43 -97 -43 -828 0 -769
-3 -729 58 -769 58 -38 151 -12 177 50 9 23 12 187 13 723 0 602 2 694 15 707
10 10 44 17 100 21 286 18 534 103 771 261 163 109 206 169 179 249 -19 59
-99 95 -156 70z"/>
<path d="M363 2255 c-39 -17 -63 -52 -70 -102 -8 -61 26 -101 119 -141 101
-43 234 -83 280 -84 109 -2 165 136 85 210 -12 11 -64 32 -115 46 -51 15 -118
38 -150 52 -71 32 -108 37 -149 19z"/>
<path d="M930 2128 c-36 -21 -60 -66 -60 -112 0 -47 47 -101 98 -113 l37 -9 1
-869 c0 -898 0 -893 38 -931 45 -45 127 -45 172 0 38 38 38 31 36 951 -1 974
2 922 -59 1003 -61 81 -195 122 -263 80z"/>
<path d="M4635 2010 c-16 -4 -70 -28 -120 -53 -112 -56 -196 -88 -319 -121
-165 -44 -246 -100 -294 -204 l-25 -56 -2 -410 c-1 -372 1 -414 16 -447 32
-65 103 -88 169 -54 62 32 63 39 62 464 0 212 4 395 8 407 10 24 54 44 179 79
158 43 381 141 434 191 28 26 43 79 33 118 -14 56 -85 99 -141 86z"/>
<path d="M2875 1861 c-11 -5 -31 -21 -45 -36 l-25 -27 -3 -781 c-1 -430 0
-791 2 -803 9 -33 49 -72 86 -81 47 -13 90 0 125 37 l30 31 2 777 c0 458 -3
790 -8 808 -14 47 -51 76 -101 80 -24 2 -52 0 -63 -5z"/>
<path d="M359 1842 c-44 -22 -74 -80 -65 -126 13 -66 54 -96 156 -112 120 -20
172 -41 191 -76 8 -15 12 -118 13 -339 l1 -317 25 -27 c50 -55 115 -63 171
-24 48 34 50 51 47 410 l-3 334 -33 67 c-54 111 -150 172 -312 203 -138 25
-153 26 -191 7z"/>
<path d="M1427 1622 c-65 -44 -61 4 -62 -766 0 -766 -2 -740 59 -777 39 -24
85 -24 124 -2 65 37 62 0 62 777 l0 706 -32 36 c-41 44 -106 55 -151 26z"/>
<path d="M4413 1510 c-109 -53 -174 -156 -176 -279 -2 -99 41 -154 123 -154
70 0 122 56 122 132 0 51 13 70 64 91 98 43 114 164 28 221 -41 27 -89 23
-161 -11z"/>
<path d="M366 1418 c-68 -35 -67 -17 -64 -688 l3 -600 31 -31 c64 -64 173 -41
200 41 8 24 11 213 10 628 l-1 594 -37 34 c-21 19 -46 34 -55 35 -10 0 -25 2
-33 4 -9 1 -33 -6 -54 -17z"/>
<path d="M3235 1310 c-11 -4 -31 -20 -45 -35 l-25 -27 -3 -464 c-2 -403 -1
-468 13 -494 33 -64 131 -81 185 -33 17 16 34 42 38 58 5 17 8 230 7 475 -1
421 -2 447 -20 474 -31 46 -100 67 -150 46z"/>
<path d="M1779 1077 c-19 -12 -39 -37 -44 -54 -16 -48 -13 -872 4 -901 17 -31
69 -62 104 -62 46 0 94 28 111 65 14 28 16 92 16 460 0 377 -2 430 -16 455
-36 61 -115 78 -175 37z"/>
<path d="M752 700 c-18 -4 -42 -16 -54 -26 -41 -37 -45 -68 -44 -304 1 -198 3
-229 19 -253 43 -65 135 -74 191 -18 l31 31 3 223 c2 122 1 236 -3 252 -12 64
-79 109 -143 95z"/>
</g>
</svg>
